<?xml version="1.0" standalone="no"?><!DOCTYPE svg PUBLIC "-//W3C//DTD SVG 1.1//EN" "http://www.w3.org/Graphics/SVG/1.1/DTD/svg11.dtd"><svg t="1630153814274" class="icon" viewBox="0 0 1024 1024" version="1.1" xmlns="http://www.w3.org/2000/svg" p-id="1248" xmlns:xlink="http://www.w3.org/1999/xlink" width="200" height="200"><defs><style type="text/css"></style></defs><path d="M512 64A448 448 0 1 1 64 512 448 448 0 0 1 512 64z m-82.688 292.576h-77.696a15.584 15.584 0 0 0-15.296 12.768l-0.224 2.784v279.712a15.552 15.552 0 0 0 12.736 15.296l2.784 0.256h77.696a15.552 15.552 0 0 0 15.296-12.768l0.256-2.784V372.16a15.552 15.552 0 0 0-15.552-15.552z m243.072 0h-77.696a15.552 15.552 0 0 0-15.552 15.552v279.712a15.552 15.552 0 0 0 15.552 15.552h77.696a15.552 15.552 0 0 0 15.52-15.552V372.16a15.552 15.552 0 0 0-15.52-15.552z" fill="#2c2c2c" p-id="1249"></path></svg>